<?xml version="1.0" encoding="UTF-8"?>
<svg id="Layer_1" data-name="Layer 1" xmlns="http://www.w3.org/2000/svg" viewBox="0 0 785.08 281">
  <defs>
    <style>
      .cls-1 {
        fill: #abdfef;
        stroke-width: 0px;
      }
    </style>
  </defs>
  <path class="cls-1" d="M189.57,136.8L297.27.5l-49.81.06-13.89.02c-13.16.15-24.55,6.35-34.17,18.6l-53.46,68.05L92.33,19.29C82.54,6.93,71.14.75,58.12.76l-42.01.05c-7.16,0-10.74,3.01-10.73,9,0,3,1.37,6.19,4.11,9.57l92.94,117.52L4.09,262.64C1.36,266.16,0,269.35,0,272.22c.79,5.86,4.44,8.79,10.95,8.78l41.61-.05c13.02-.01,24.35-6.15,33.98-18.4l59.51-76.07,59.68,75.94c9.65,12.23,20.99,18.34,34.02,18.32l63.13-.07-113.31-143.87ZM736.24,280.19l43.38-55.33-106.74.12c-35.04.04-58.88-6.32-71.54-19.07-12.65-12.75-18.99-34.6-19.03-65.53-.03-30.94,6.26-52.83,18.88-65.67,12.62-12.85,36.45-19.29,71.49-19.33l112.38-.13L741.22,0l-70.74.08c-56.53.06-97.65,11.41-123.35,34.04-11.72,10.32-20.63,23.45-26.99,39.1,7.05,19.15,10.63,41.59,10.66,67.21.03,25.63-3.5,48.06-10.51,67.21,6.4,15.62,15.33,28.7,27.08,38.97,25.75,22.5,66.89,33.73,123.43,33.66l65.44-.09ZM513.81,92.69c-1.68-6.93-3.87-13.35-6.38-19.46-6.4-15.64-15.33-28.74-27.08-39.04C454.6,11.62,413.46.37,356.93.43l-44.69.05-43.73,55.34,86.33-.1c35.04-.04,58.89,6.35,71.54,19.17,12.65,12.82,18.99,34.69,19.02,65.63.03,30.94-6.26,52.79-18.88,65.58-12.62,12.78-36.45,19.19-71.49,19.23l-80.73.09,43.51,55.25,39.43-.04c56.53-.06,97.65-11.38,123.35-33.94,11.72-10.29,20.63-23.39,26.99-39.03,2.49-6.11,4.66-12.53,6.33-19.47,3.42-14.21,5.17-30.1,5.15-47.74-.02-17.65-1.8-33.54-5.25-47.75Z"/>
  <path class="cls-1" d="M205,137.02l55.99,70.96-.16-142.04-55.83,71.08Z"/>
</svg>